<svg version="1.0" xmlns="http://www.w3.org/2000/svg" preserveAspectRatio="xMidYMid meet" viewBox="317.52 562.46 1399.98 910.41">  <g transform="translate(0.000000,2036.000000) scale(0.100000,-0.100000)" fill="#FF90E8" stroke="none"> <path d="M10030 14726 c-117 -23 -188 -59 -309 -155 -88 -69 -150 -151 -195 -258 -38 -90 -47 -143 -47 -272 1 -187 46 -315 161 -451 94 -113 236 -200 373 -229 31 -7 57 -18 57 -24 0 -7 -11 -88 -25 -182 -14 -93 -30 -204 -35 -245 -11 -83 -36 -237 -50 -315 -6 -27 -26 -147 -46 -265 -55 -330 -167 -874 -208 -1010 -8 -25 -24 -83 -36 -130 -60 -230 -103 -378 -137 -480 -8 -25 -19 -54 -23 -65 -5 -11 -16 -45 -26 -75 -41 -132 -219 -557 -244 -580 -3 -3 -20 -34 -39 -70 -261 -498 -664 -758 -996 -642 -190 66 -334 184 -517 423 -160 209 -297 446 -550 954 -85 171 -189 376 -231 456 -107 204 -103 192 -59 222 228 150 303 428 182 673 -67 136 -198 240 -351 278 -267 66 -554 -101 -619 -361 -26 -103 -26 -207 1 -297 28 -95 48 -132 105 -195 105 -117 222 -170 398 -180 l110 -6 11 -50 c7 -27 22 -97 34 -155 12 -58 33 -157 47 -220 15 -63 30 -133 34 -155 34 -177 42 -214 50 -240 12 -40 59 -302 90 -505 32 -209 42 -335 47 -575 7 -326 -20 -496 -110 -684 -34 -71 -56 -101 -126 -171 -157 -156 -347 -230 -588 -230 -135 0 -237 19 -418 77 -145 47 -266 99 -460 198 -143 74 -244 131 -717 406 -70 41 -128 77 -128 81 0 4 12 24 26 45 70 104 95 195 95 357 2 216 -52 351 -198 503 -66 67 -93 88 -173 127 -248 121 -476 112 -693 -27 -31 -20 -61 -37 -65 -37 -9 0 -82 -82 -123 -139 -101 -138 -150 -327 -129 -495 6 -47 15 -96 19 -109 5 -12 19 -49 32 -82 70 -187 287 -367 494 -410 87 -18 230 -19 311 -1 75 16 189 68 226 103 14 14 31 24 37 22 5 -2 42 -42 81 -89 40 -47 91 -105 114 -130 23 -25 93 -110 155 -190 62 -80 118 -152 125 -161 54 -67 302 -433 403 -595 231 -368 367 -621 601 -1114 43 -92 147 -328 162 -372 8 -20 18 -34 23 -31 6 4 7 1 3 -6 -5 -7 5 -44 22 -84 17 -40 39 -97 50 -127 11 -30 35 -93 52 -140 17 -47 38 -110 47 -140 8 -30 18 -59 23 -64 5 -4 67 3 142 18 73 14 160 31 193 37 33 6 90 17 127 25 36 7 95 18 130 23 34 5 124 19 198 31 74 12 180 27 235 35 55 7 170 23 255 35 146 20 211 28 525 65 391 46 966 88 1435 105 368 14 1576 8 1880 -9 323 -18 793 -57 1070 -90 47 -6 146 -17 220 -25 241 -27 640 -82 845 -117 66 -11 163 -27 215 -35 100 -15 350 -64 462 -91 36 -8 71 -14 78 -11 6 2 33 66 59 143 81 238 201 532 354 870 38 84 234 476 280 560 205 375 226 409 451 745 153 229 300 434 354 495 15 16 45 53 67 81 69 88 126 157 169 205 22 25 65 73 95 107 30 34 58 62 62 62 4 0 38 -18 75 -40 128 -75 312 -113 441 -91 278 49 481 215 574 471 21 57 24 83 24 210 0 170 -11 223 -69 335 -30 58 -63 102 -121 160 -95 94 -163 137 -294 183 -87 31 -106 34 -211 34 -99 0 -126 -3 -195 -26 -126 -43 -201 -89 -295 -185 -90 -91 -144 -183 -178 -301 -20 -73 -22 -286 -3 -360 19 -76 56 -158 91 -202 17 -20 30 -41 30 -47 0 -5 -33 -27 -72 -49 -61 -33 -524 -309 -623 -371 -26 -16 -91 -51 -280 -150 -27 -15 -88 -42 -135 -60 -47 -18 -96 -37 -110 -43 -36 -15 -71 -25 -196 -58 -373 -97 -709 -2 -899 254 -67 91 -98 158 -128 276 -90 344 -46 915 133 1735 63 288 114 530 131 615 5 24 13 47 17 51 4 4 57 9 117 11 83 4 124 10 168 27 83 33 175 98 225 162 23 30 47 59 52 66 5 7 21 46 35 87 20 58 25 95 25 168 0 225 -95 381 -293 478 -131 64 -236 75 -366 39 -180 -51 -301 -168 -361 -351 -36 -111 -23 -271 32 -386 33 -70 142 -193 189 -214 29 -13 37 -35 20 -53 -5 -6 -98 -188 -207 -405 -188 -375 -238 -470 -392 -740 -260 -456 -499 -737 -723 -850 -113 -58 -180 -73 -297 -68 -148 6 -267 51 -393 146 -333 253 -600 747 -857 1587 -65 211 -96 330 -187 710 -8 33 -24 110 -35 170 -12 61 -32 162 -45 225 -36 175 -111 638 -180 1105 -8 55 -16 120 -17 144 l-3 45 50 11 c129 30 291 128 373 227 29 34 72 101 96 148 173 339 29 761 -320 938 -111 56 -318 83 -444 58z"></path> </g> </svg>